<svg xmlns="http://www.w3.org/2000/svg" width="20" height="19.242" viewBox="0 0 20 19.242">
  <g id="iconeAnuncie" transform="translate(0 0)">
    <path id="Caminho_14" data-name="Caminho 14" d="M367.809,14.628,350.078,9.561a1.147,1.147,0,0,0-.315-.044,1.136,1.136,0,0,0-1.131,1.135V23.843a1.133,1.133,0,0,0,1.446,1.09l17.731-5.066a1.139,1.139,0,0,0,.823-1.091V15.718A1.139,1.139,0,0,0,367.809,14.628Z" transform="translate(-348.632 -9.517)" fill="#a7a7a7"/>
    <path id="Caminho_15" data-name="Caminho 15" d="M452,157.141l-4.518,1.437v-1.545l-2.446.7v2.518a1.224,1.224,0,0,0,1.223,1.223,1.21,1.21,0,0,0,.371-.058l6.964-2.216a1.223,1.223,0,0,0,.852-1.166v-2.991l-2.446.7Z" transform="translate(-436.545 -142.232)" fill="#a7a7a7"/>
  </g>
</svg>
