<svg id="Componente" xmlns="http://www.w3.org/2000/svg" width="19.286" height="20.179" viewBox="0 0 19.286 20.179">
  <path id="Caminho_16" data-name="Caminho 16" d="M150.605,9.108a3.4,3.4,0,1,0-3.394-3.4,3.4,3.4,0,0,0,3.394,3.4Zm0,0" transform="translate(-134.714 -2.119)" fill="#a7a7a7"/>
  <path id="Caminho_17" data-name="Caminho 17" d="M147.211,97.246v8.463a.5.5,0,0,0,.5.5h5.439a.5.5,0,0,0,.5-.5V97.246a3.224,3.224,0,1,0-6.448,0Zm0,0" transform="translate(-134.714 -86.035)" fill="#a7a7a7"/>
  <path id="Caminho_18" data-name="Caminho 18" d="M9.6,2.561.724.022A.573.573,0,0,0,.566,0,.569.569,0,0,0,0,.569v6.61a.568.568,0,0,0,.724.546L9.6,5.186a.571.571,0,0,0,.412-.547V3.107A.571.571,0,0,0,9.6,2.561Zm0,0" transform="translate(0)" fill="#a7a7a7"/>
  <path id="Caminho_19" data-name="Caminho 19" d="M53.558,76.637l-2.263.72v-.774l-1.225.35v1.262a.613.613,0,0,0,.612.613.606.606,0,0,0,.186-.029l3.488-1.11a.613.613,0,0,0,.427-.584v-1.5l-1.225.35Zm0,0" transform="translate(-45.819 -69.167)" fill="#a7a7a7"/>
</svg>
